<svg width="45" height="45" viewBox="0 0 45 45" fill="none" xmlns="http://www.w3.org/2000/svg">
<rect width="45" height="45" rx="22.5" fill="#6E97FF"/>
<path d="M16.6927 14.8716C16.664 14.8715 16.6349 14.8723 16.6054 14.8737C16.2525 14.8915 15.8494 15.0277 15.3112 15.3865C13.9472 16.2958 12.0667 19.1611 11.0716 22.2618C10.0766 25.3624 9.94373 28.6524 11.4426 30.5721C11.7015 30.9038 12.2793 31.1303 12.9274 31.125C13.5659 31.1198 14.22 30.8851 14.5825 30.535C14.6464 30.4431 15.1635 29.7015 15.9194 28.8223C16.7233 27.8873 17.7141 26.8419 18.784 26.3987C21.4005 25.315 24.598 25.315 27.2145 26.3987C28.2844 26.842 29.2751 27.8873 30.0791 28.8223C30.835 29.7016 31.3522 30.4431 31.416 30.5351C31.7785 30.8852 32.4327 31.1198 33.0712 31.1251C33.7192 31.1304 34.2969 30.9038 34.5559 30.5722C36.0542 28.6532 35.9237 25.3488 34.9295 22.2418C33.9353 19.1348 32.0511 16.2714 30.693 15.3903C29.9744 14.924 29.4932 14.8446 29.0502 14.9128C28.6072 14.9811 28.1535 15.2376 27.6211 15.6046C26.5562 16.3388 25.19 17.4809 22.9991 17.4809C20.7984 17.4809 19.4294 16.3238 18.366 15.5836C17.8344 15.2136 17.3829 14.9571 16.9445 14.8913C16.8612 14.8785 16.777 14.8719 16.6927 14.8715L16.6927 14.8716ZM29.9992 17.9185C30.2645 17.9185 30.5188 18.0238 30.7063 18.2114C30.8939 18.3989 30.9992 18.6532 30.9992 18.9185C30.9992 19.1837 30.8939 19.438 30.7063 19.6256C30.5188 19.8131 30.2645 19.9185 29.9992 19.9185C29.734 19.9185 29.4797 19.8131 29.2921 19.6256C29.1046 19.438 28.9992 19.1837 28.9992 18.9185C28.9992 18.6532 29.1046 18.3989 29.2921 18.2114C29.4797 18.0238 29.734 17.9185 29.9992 17.9185ZM15.4375 18.4375H16.5625V20.4375H18.5625V21.5625H16.5625V23.5625H15.4375V21.5625H13.4375V20.4375H15.4375V18.4375ZM27.9992 19.9185C28.2645 19.9185 28.5188 20.0238 28.7063 20.2114C28.8939 20.3989 28.9992 20.6532 28.9992 20.9185C28.9992 21.1837 28.8939 21.438 28.7063 21.6256C28.5188 21.8131 28.2645 21.9185 27.9992 21.9185C27.734 21.9185 27.4797 21.8131 27.2921 21.6256C27.1046 21.438 26.9992 21.1837 26.9992 20.9185C26.9992 20.6532 27.1046 20.3989 27.2921 20.2114C27.4797 20.0238 27.734 19.9185 27.9992 19.9185ZM31.9992 19.9185C32.2645 19.9185 32.5188 20.0238 32.7063 20.2114C32.8939 20.3989 32.9992 20.6532 32.9992 20.9185C32.9992 21.1837 32.8939 21.438 32.7063 21.6256C32.5188 21.8131 32.2645 21.9185 31.9992 21.9185C31.734 21.9185 31.4797 21.8131 31.2921 21.6256C31.1046 21.438 30.9992 21.1837 30.9992 20.9185C30.9992 20.6532 31.1046 20.3989 31.2921 20.2114C31.4797 20.0238 31.734 19.9185 31.9992 19.9185ZM29.9992 21.9185C30.2645 21.9185 30.5188 22.0238 30.7063 22.2114C30.8939 22.3989 30.9992 22.6532 30.9992 22.9185C30.9992 23.1837 30.8939 23.438 30.7063 23.6256C30.5188 23.8131 30.2645 23.9185 29.9992 23.9185C29.734 23.9185 29.4797 23.8131 29.2921 23.6256C29.1046 23.438 28.9992 23.1837 28.9992 22.9185C28.9992 22.6532 29.1046 22.3989 29.2921 22.2114C29.4797 22.0238 29.734 21.9185 29.9992 21.9185ZM19.9992 22.356H21.9992V23.481H19.9992V22.356ZM23.9992 22.356H25.7428V23.481H23.9992V22.356Z" fill="white"/>
</svg>
