<svg width="21" height="19" viewBox="0 0 21 19" fill="none" xmlns="http://www.w3.org/2000/svg">
<path d="M1.57364 1.77253C-0.522386 4.12609 -0.518094 7.61851 1.54789 10.3011C3.05874 12.2641 7.85456 17.0513 8.45261 17.5807C9.92197 18.8827 10.975 18.9843 12.5345 17.6065C12.7233 17.4405 13.1182 17.0585 13.6319 16.5463L14.1011 16.077C15.828 14.3358 18.4077 11.6403 19.4736 10.3011C21.4809 7.78448 21.5453 4.12609 19.4478 1.77253C17.3503 -0.581027 13.9237 -0.583889 11.8506 1.74392C10.8276 2.8928 10.51 3.5495 10.51 3.5495C10.51 3.5495 10.1609 2.8556 9.17084 1.74392C7.09055 -0.591043 3.66966 -0.581027 1.57364 1.77253Z" fill="currentColor"/>
</svg>
