<svg width="45" height="45" viewBox="0 0 45 45" fill="none" xmlns="http://www.w3.org/2000/svg">
<rect width="45" height="45" rx="22.5" fill="#FF77AD"/>
<g clip-path="url(#clip0_1005_71)">
<path d="M30.9192 11.0006C33.644 11.0006 34.9995 12.356 34.9995 15.0413V30.9592C34.9995 33.6445 33.644 35 30.9192 35H15.0937C12.3822 35 11.0001 33.6573 11.0001 30.9592V15.0408C11.0001 12.3427 12.3822 11 15.0937 11L30.9192 11.0006ZM25.7811 28.562H15.7695C15.4744 28.562 15.1915 28.6792 14.9829 28.8878C14.7743 29.0964 14.6571 29.3794 14.6571 29.6744C14.6571 29.9694 14.7743 30.2524 14.9829 30.461C15.1915 30.6696 15.4744 30.7868 15.7695 30.7868H25.7811C26.0761 30.7868 26.359 30.6696 26.5676 30.461C26.7763 30.2524 26.8935 29.9694 26.8935 29.6744C26.8935 29.3794 26.7763 29.0964 26.5676 28.8878C26.359 28.6792 26.0761 28.562 25.7811 28.562ZM30.2306 24.6686H15.7695C15.4744 24.6686 15.1915 24.7858 14.9829 24.9944C14.7743 25.203 14.6571 25.486 14.6571 25.781C14.6571 26.076 14.7743 26.359 14.9829 26.5676C15.1915 26.7762 15.4744 26.8934 15.7695 26.8934H30.2306C30.5257 26.8934 30.8086 26.7762 31.0172 26.5676C31.2259 26.359 31.3431 26.076 31.3431 25.781C31.3431 25.486 31.2259 25.203 31.0172 24.9944C30.8086 24.7858 30.5257 24.6686 30.2306 24.6686ZM15.2689 15.3461C14.4541 16.2611 14.4557 17.6188 15.2589 18.6616C15.8462 19.4248 17.7106 21.2858 17.9431 21.4916C18.5143 21.9977 18.9237 22.0372 19.5299 21.5016C19.6034 21.4371 19.7569 21.2886 19.9565 21.0895L20.139 20.907C20.8103 20.2301 21.8131 19.1822 22.2275 18.6616C23.0078 17.6833 23.0329 16.2611 22.2175 15.3461C21.4021 14.4312 20.07 14.4301 19.2641 15.335C18.8664 15.7816 18.7429 16.0369 18.7429 16.0369C18.7429 16.0369 18.6072 15.7672 18.2223 15.335C17.4136 14.4273 16.0837 14.4312 15.2689 15.3461Z" fill="white"/>
</g>
<defs>
<clipPath id="clip0_1005_71">
<rect width="24" height="24" fill="white" transform="translate(11 11)"/>
</clipPath>
</defs>
</svg>
