<svg width="45" height="45" viewBox="0 0 45 45" fill="none" xmlns="http://www.w3.org/2000/svg">
<rect width="45" height="45" rx="22.5" fill="#FFD153"/>
<path d="M21.4333 36.3333C20.8333 36.3333 20.3169 36.1333 19.884 35.7333C19.4511 35.3333 19.1898 34.8444 19.1 34.2666L18.8 32.0666C18.5111 31.9555 18.2391 31.8222 17.984 31.6666C17.7289 31.5111 17.4786 31.3444 17.2333 31.1666L15.1666 32.0333C14.6111 32.2777 14.0555 32.3 13.5 32.1C12.9444 31.9 12.5111 31.5444 12.2 31.0333L10.6333 28.3C10.3222 27.7888 10.2333 27.2444 10.3666 26.6666C10.5 26.0888 10.8 25.6111 11.2666 25.2333L13.0333 23.9C13.0111 23.7444 13 23.5942 13 23.4493V22.5493C13 22.4053 13.0111 22.2555 13.0333 22.1L11.2666 20.7666C10.8 20.3888 10.5 19.9111 10.3666 19.3333C10.2333 18.7555 10.3222 18.2111 10.6333 17.7L12.2 14.9666C12.5111 14.4555 12.9444 14.1 13.5 13.9C14.0555 13.7 14.6111 13.7222 15.1666 13.9666L17.2333 14.8333C17.4778 14.6555 17.7333 14.4888 18 14.3333C18.2666 14.1777 18.5333 14.0444 18.8 13.9333L19.1 11.7333C19.1889 11.1555 19.4502 10.6666 19.884 10.2666C20.3178 9.86663 20.8342 9.66663 21.4333 9.66663H24.5666C25.1666 9.66663 25.6835 9.86663 26.1173 10.2666C26.5511 10.6666 26.812 11.1555 26.9 11.7333L27.2 13.9333C27.4889 14.0444 27.7613 14.1777 28.0173 14.3333C28.2733 14.4888 28.5231 14.6555 28.7666 14.8333L30.8333 13.9666C31.3889 13.7222 31.9444 13.7 32.5 13.9C33.0555 14.1 33.4889 14.4555 33.8 14.9666L35.3666 17.7C35.6778 18.2111 35.7666 18.7555 35.6333 19.3333C35.5 19.9111 35.2 20.3888 34.7333 20.7666L32.9666 22.1C32.9889 22.2555 33 22.4057 33 22.5506V23.4493C33 23.5942 32.9778 23.7444 32.9333 23.9L34.7 25.2333C35.1666 25.6111 35.4666 26.0888 35.6 26.6666C35.7333 27.2444 35.6444 27.7888 35.3333 28.3L33.7333 31.0333C33.4222 31.5444 32.9889 31.9 32.4333 32.1C31.8778 32.3 31.3222 32.2777 30.7666 32.0333L28.7666 31.1666C28.5222 31.3444 28.2666 31.5111 28 31.6666C27.7333 31.8222 27.4666 31.9555 27.2 32.0666L26.9 34.2666C26.8111 34.8444 26.5502 35.3333 26.1173 35.7333C25.6844 36.1333 25.1675 36.3333 24.5666 36.3333H21.4333ZM23.5666 27.6826C23.7222 27.6275 23.8666 27.5333 24 27.4L27.7333 23.6666C28.1111 23.2888 28.3555 22.8275 28.4666 22.2826C28.5778 21.7377 28.5222 21.2102 28.3 20.7C28.0778 20.1897 27.7444 19.7786 27.3 19.4666C26.8555 19.1546 26.3555 18.9991 25.8 19C25.2444 19.0008 24.7444 19.1728 24.3 19.516C23.8555 19.8591 23.4444 20.2204 23.0666 20.6C22.6666 20.2222 22.2502 19.8608 21.8173 19.516C21.3844 19.1711 20.8898 18.9991 20.3333 19C19.7769 19.0008 19.2715 19.1511 18.8173 19.4506C18.3631 19.7502 18.024 20.1555 17.8 20.6666C17.576 21.1777 17.5262 21.7057 17.6506 22.2506C17.7751 22.7955 18.0249 23.2675 18.4 23.6666L22.1 27.4C22.2333 27.5333 22.3835 27.628 22.5506 27.684C22.7178 27.74 22.8898 27.7675 23.0666 27.7666C23.2435 27.7657 23.4102 27.7368 23.5666 27.6826Z" fill="white"/>
</svg>
